<svg width="17" height="18" viewBox="0 0 17 18" fill="none" xmlns="http://www.w3.org/2000/svg">
<g clip-path="url(#clip0_1_3527)">
<path d="M2.88799 13.1071C2.14911 11.9943 1.7178 10.6615 1.7178 9.22881C1.7178 5.35144 4.87219 2.19704 8.74956 2.19704C8.94665 2.19704 9.14021 2.20765 9.33289 2.22356L10.5199 1.42723C9.9498 1.29819 9.35763 1.22925 8.74867 1.22925C4.33924 1.22836 0.75 4.8176 0.75 9.22881C0.75 11.0636 1.37133 12.7562 2.41425 14.1076L2.88799 13.1071Z" fill="white"/>
<path d="M14.4903 3.66162C14.3488 3.94975 14.188 4.24937 14.0015 4.55871C15.1081 5.80138 15.7824 7.43735 15.7824 9.22888C15.7824 13.1062 12.628 16.2606 8.75066 16.2606C8.05331 16.2606 7.37983 16.1572 6.74259 15.9672L5.74121 16.6416C6.67012 17.0198 7.68652 17.2293 8.74977 17.2293C13.161 17.2293 16.7502 13.6401 16.7502 9.22888C16.7502 7.06702 15.8876 5.10315 14.4894 3.66162H14.4903Z" fill="white"/>
<path fill-rule="evenodd" clip-rule="evenodd" d="M7.74855 4.79559L14.1961 0.469238C14.1961 0.469238 13.9168 4.40494 9.45081 7.58673C8.07027 8.57044 5.67773 10.2046 5.67773 10.2046L7.74767 4.79559H7.74855Z" fill="white"/>
<path fill-rule="evenodd" clip-rule="evenodd" d="M4.69754 12.2153L11.3952 7.74756C11.3952 7.74756 13.7073 8.81523 12.7696 11.4163C11.922 13.7673 9.04069 12.91 9.04069 12.91L2.17773 17.5307L4.69754 12.2153Z" fill="white"/>
</g>
<defs>
<clipPath id="clip0_1_3527">
<rect width="16" height="17.0615" fill="white" transform="translate(0.75 0.469238)"/>
</clipPath>
</defs>
</svg>
