<svg width="16" height="16" viewBox="0 0 16 16" fill="none" xmlns="http://www.w3.org/2000/svg">
<path d="M4.125 13.1836C3.39722 13.1836 2.77778 12.928 2.26667 12.4169C1.75556 11.9058 1.5 11.2863 1.5 10.5586V5.44189C1.5 4.71412 1.75556 4.09467 2.26667 3.58356C2.77778 3.07245 3.39722 2.81689 4.125 2.81689H11.875C12.6028 2.81689 13.2222 3.07245 13.7333 3.58356C14.2444 4.09467 14.5 4.71412 14.5 5.44189V10.5586C14.5 11.2863 14.2444 11.9058 13.7333 12.4169C13.2222 12.928 12.6028 13.1836 11.875 13.1836H4.125ZM4.09167 5.48356H11.9167C12.1611 5.48356 12.3958 5.51412 12.6208 5.57523C12.8458 5.63634 13.0556 5.72801 13.25 5.85023V5.44189C13.25 5.06412 13.1153 4.74051 12.8458 4.47106C12.5764 4.20162 12.2528 4.06689 11.875 4.06689H4.125C3.74722 4.06689 3.42361 4.20162 3.15417 4.47106C2.88472 4.74051 2.75 5.06412 2.75 5.44189V5.85856C2.94444 5.73634 3.15417 5.64328 3.37917 5.57939C3.60417 5.51551 3.84167 5.48356 4.09167 5.48356ZM2.84167 7.63356L10.0833 9.45856C10.1778 9.48078 10.2736 9.48078 10.3708 9.45856C10.4681 9.43634 10.5583 9.39467 10.6417 9.33356L13.0167 7.34189C12.8944 7.16412 12.7389 7.01828 12.55 6.90439C12.3611 6.79051 12.15 6.73356 11.9167 6.73356H4.09167C3.79722 6.73356 3.53889 6.81551 3.31667 6.97939C3.09444 7.14328 2.93611 7.36134 2.84167 7.63356Z" fill="white"/>
</svg>
