<svg width="16" height="16" viewBox="0 0 16 16" fill="none" xmlns="http://www.w3.org/2000/svg">
<path d="M4.125 13.1816C3.39722 13.1816 2.77778 12.9261 2.26667 12.4149C1.75556 11.9038 1.5 11.2844 1.5 10.5566V5.43994C1.5 4.71216 1.75556 4.09272 2.26667 3.58161C2.77778 3.0705 3.39722 2.81494 4.125 2.81494H11.875C12.6028 2.81494 13.2222 3.0705 13.7333 3.58161C14.2444 4.09272 14.5 4.71216 14.5 5.43994V10.5566C14.5 11.2844 14.2444 11.9038 13.7333 12.4149C13.2222 12.9261 12.6028 13.1816 11.875 13.1816H4.125ZM4.09167 5.48161H11.9167C12.1611 5.48161 12.3958 5.51216 12.6208 5.57327C12.8458 5.63439 13.0556 5.72605 13.25 5.84827V5.43994C13.25 5.06216 13.1153 4.73855 12.8458 4.46911C12.5764 4.19966 12.2528 4.06494 11.875 4.06494H4.125C3.74722 4.06494 3.42361 4.19966 3.15417 4.46911C2.88472 4.73855 2.75 5.06216 2.75 5.43994V5.85661C2.94444 5.73439 3.15417 5.64133 3.37917 5.57744C3.60417 5.51355 3.84167 5.48161 4.09167 5.48161ZM2.84167 7.63161L10.0833 9.45661C10.1778 9.47883 10.2736 9.47883 10.3708 9.45661C10.4681 9.43439 10.5583 9.39272 10.6417 9.33161L13.0167 7.33994C12.8944 7.16216 12.7389 7.01633 12.55 6.90244C12.3611 6.78855 12.15 6.73161 11.9167 6.73161H4.09167C3.79722 6.73161 3.53889 6.81355 3.31667 6.97744C3.09444 7.14133 2.93611 7.35939 2.84167 7.63161Z" fill="#A9A9A9"/>
</svg>
