<svg width="12" height="12" viewBox="0 0 12 12" fill="none" xmlns="http://www.w3.org/2000/svg">
<path d="M4.4375 9C4.17967 9 3.95896 8.90821 3.77538 8.72462C3.59179 8.54104 3.5 8.32033 3.5 8.0625V2.0625C3.5 1.80467 3.59179 1.58396 3.77538 1.40038C3.95896 1.21679 4.17967 1.125 4.4375 1.125H8.9375C9.19533 1.125 9.41604 1.21679 9.59962 1.40038C9.78321 1.58396 9.875 1.80467 9.875 2.0625V8.0625C9.875 8.32033 9.78321 8.54104 9.59962 8.72462C9.41604 8.90821 9.19533 9 8.9375 9H4.4375ZM2.5625 10.875C2.30467 10.875 2.08396 10.7832 1.90037 10.5996C1.71679 10.416 1.625 10.1953 1.625 9.9375V3H2.5625V9.9375H8V10.875H2.5625Z" fill="#A9A9A9"/>
</svg>
