<svg width="30" height="30" viewBox="0 0 30 30" fill="none" xmlns="http://www.w3.org/2000/svg">
<circle cx="15" cy="15" r="15" fill="#3D3D3D"/>
<path d="M15.0002 15.0188C14.1939 15.0188 13.508 14.736 12.9424 14.1704C12.3768 13.6047 12.0939 12.9188 12.0939 12.1125C12.0939 11.3063 12.3768 10.6204 12.9424 10.0547C13.508 9.48911 14.1939 9.2063 15.0002 9.2063C15.8064 9.2063 16.4924 9.48911 17.058 10.0547C17.6236 10.6204 17.9064 11.3063 17.9064 12.1125C17.9064 12.9188 17.6236 13.6047 17.058 14.1704C16.4924 14.736 15.8064 15.0188 15.0002 15.0188ZM9.16895 20.7563V18.7688C9.16895 18.3563 9.27363 17.9797 9.48301 17.6391C9.69238 17.2985 9.9752 17.0376 10.3314 16.8563C11.0939 16.4813 11.8643 16.1985 12.6424 16.0079C13.4205 15.8172 14.2064 15.7219 15.0002 15.7219C15.7939 15.7219 16.5799 15.8172 17.358 16.0079C18.1361 16.1985 18.9064 16.4813 19.6689 16.8563C20.0252 17.0376 20.308 17.2985 20.5174 17.6391C20.7268 17.9797 20.8314 18.3563 20.8314 18.7688V20.7563H9.16895Z" fill="#E8EAED"/>
</svg>
