<svg width="10" height="10" viewBox="0 0 10 10" fill="none" xmlns="http://www.w3.org/2000/svg">
<g clip-path="url(#clip0_105_5912)">
<path d="M4.61458 7.03125H5.39583V4.59375H4.61458V7.03125ZM4.99885 3.79167C5.11073 3.79167 5.20486 3.75385 5.28125 3.67823C5.35764 3.60253 5.39583 3.50878 5.39583 3.39698C5.39583 3.2851 5.35802 3.19097 5.2824 3.11458C5.2067 3.03819 5.11295 3 5.00115 3C4.88927 3 4.79514 3.03781 4.71875 3.11344C4.64236 3.18913 4.60417 3.28288 4.60417 3.39469C4.60417 3.50656 4.64198 3.60069 4.7176 3.67708C4.7933 3.75347 4.88705 3.79167 4.99885 3.79167ZM5 9.0625C4.43813 9.0625 3.9101 8.95569 3.41594 8.74208C2.92184 8.5284 2.49201 8.23847 2.12646 7.87229C1.7609 7.50604 1.47135 7.07608 1.25781 6.5824C1.04427 6.08879 0.9375 5.56132 0.9375 5C0.9375 4.43813 1.04431 3.9101 1.25792 3.41594C1.4716 2.92184 1.76153 2.49201 2.12771 2.12646C2.49396 1.7609 2.92392 1.47135 3.4176 1.25781C3.91122 1.04427 4.43868 0.9375 5 0.9375C5.56188 0.9375 6.0899 1.04431 6.58406 1.25792C7.07816 1.4716 7.50799 1.76153 7.87354 2.12771C8.2391 2.49396 8.52865 2.92392 8.74219 3.4176C8.95573 3.91122 9.0625 4.43868 9.0625 5C9.0625 5.56188 8.95569 6.0899 8.74208 6.58406C8.5284 7.07816 8.23847 7.50799 7.87229 7.87354C7.50604 8.2391 7.07608 8.52865 6.5824 8.74219C6.08878 8.95573 5.56132 9.0625 5 9.0625Z" fill="#A9A9A9"/>
</g>
<defs>
<clipPath id="clip0_105_5912">
<rect width="10" height="10" fill="white"/>
</clipPath>
</defs>
</svg>
