<svg width="16" height="17" viewBox="0 0 16 17" fill="none" xmlns="http://www.w3.org/2000/svg">
<path d="M5.40124 12.4707H10.5929V11.2207H5.40124V12.4707ZM5.40124 9.83734H10.5929V8.58734H5.40124V9.83734ZM4.05957 15.104C3.71579 15.104 3.42151 14.9816 3.17674 14.7368C2.93196 14.4921 2.80957 14.1978 2.80957 13.854V3.354C2.80957 3.01023 2.93196 2.71595 3.17674 2.47117C3.42151 2.22639 3.71579 2.104 4.05957 2.104H9.32623L13.1762 5.94567V13.854C13.1762 14.1978 13.0538 14.4921 12.8091 14.7368C12.5643 14.9816 12.27 15.104 11.9262 15.104H4.05957ZM8.70957 6.57067H11.9262L8.70957 3.354V6.57067Z" fill="#A9A9A9"/>
</svg>
