<svg width="16" height="17" viewBox="0 0 16 17" fill="none" xmlns="http://www.w3.org/2000/svg">
<path d="M6.25111 15.1039L5.98444 13.0206C5.83444 12.9651 5.68722 12.897 5.54277 12.8164C5.39833 12.7359 5.265 12.6512 5.14277 12.5623L3.21777 13.3623L1.46777 10.3289L3.15111 9.05395C3.14 8.98172 3.13444 8.91228 3.13444 8.84561V8.60395C3.13444 8.53728 3.13583 8.46506 3.13861 8.38728C3.14138 8.3095 3.14833 8.22061 3.15944 8.12061L1.46777 6.86228L3.21777 3.84561L5.16777 4.66228C5.27888 4.57339 5.4025 4.49006 5.53861 4.41228C5.67472 4.3345 5.82333 4.26228 5.98444 4.19561L6.25111 2.08728H9.73444L10.0011 4.17061C10.1567 4.23172 10.2997 4.30256 10.4303 4.38311C10.5608 4.46367 10.6872 4.55672 10.8094 4.66228L12.7678 3.84561L14.5178 6.86228L12.7844 8.15395C12.7956 8.23172 12.8011 8.30256 12.8011 8.36645V8.84978C12.8011 8.91922 12.7928 8.99006 12.7761 9.06228L14.4928 10.3289L12.7428 13.3623L10.8094 12.5456C10.7039 12.6289 10.5886 12.7067 10.4636 12.7789C10.3386 12.8512 10.1844 12.9317 10.0011 13.0206L9.73444 15.1039H6.25111ZM7.98444 10.8539C8.60666 10.8539 9.13722 10.6345 9.57611 10.1956C10.015 9.75672 10.2344 9.22617 10.2344 8.60395C10.2344 7.98172 10.015 7.45117 9.57611 7.01228C9.13722 6.57339 8.60666 6.35395 7.98444 6.35395C7.35666 6.35395 6.82472 6.57339 6.38861 7.01228C5.9525 7.45117 5.73444 7.98172 5.73444 8.60395C5.73444 9.22617 5.9525 9.75672 6.38861 10.1956C6.82472 10.6345 7.35666 10.8539 7.98444 10.8539Z" fill="#A9A9A9"/>
</svg>
