<svg width="12" height="12" viewBox="0 0 12 12" fill="none" xmlns="http://www.w3.org/2000/svg">
<path d="M3.5748 8.43584H4.51231V5.03584H3.5748V8.43584ZM5.53731 8.43584H6.47481V3.56084H5.53731V8.43584ZM7.48731 8.43584H8.42481V6.51084H7.48731V8.43584ZM2.5498 10.3858C2.29197 10.3858 2.07126 10.294 1.88768 10.1105C1.7041 9.92688 1.6123 9.70617 1.6123 9.44834V2.54834C1.6123 2.29051 1.7041 2.0698 1.88768 1.88622C2.07126 1.70263 2.29197 1.61084 2.5498 1.61084H9.44981C9.70764 1.61084 9.92835 1.70263 10.1119 1.88622C10.2955 2.0698 10.3873 2.29051 10.3873 2.54834V9.44834C10.3873 9.70617 10.2955 9.92688 10.1119 10.1105C9.92835 10.294 9.70764 10.3858 9.44981 10.3858H2.5498Z" fill="#A9A9A9"/>
</svg>
