<svg width="13" height="12" viewBox="0 0 13 12" fill="none" xmlns="http://www.w3.org/2000/svg">
<path d="M6.97552 10.875C6.30668 10.875 5.67622 10.7472 5.08414 10.4917C4.49206 10.2362 3.97502 9.8875 3.53302 9.4455C3.09102 9.0035 2.74227 8.48646 2.48677 7.89437C2.23127 7.30229 2.10352 6.67183 2.10352 6.003C2.10352 5.326 2.23127 4.69304 2.48677 4.10413C2.74227 3.51521 3.09102 2.99938 3.53302 2.55663C3.97502 2.11396 4.49206 1.76471 5.08414 1.50888C5.67622 1.25296 6.30668 1.125 6.97552 1.125C7.65252 1.125 8.28547 1.25296 8.87439 1.50888C9.46331 1.76479 9.97914 2.11417 10.4219 2.557C10.8646 2.99983 11.2138 3.51579 11.4696 4.10488C11.7256 4.69396 11.8535 5.32567 11.8535 6C11.8535 6.67083 11.7256 7.30229 11.4696 7.89437C11.2138 8.48646 10.8646 9.0035 10.4219 9.4455C9.97914 9.8875 9.46331 10.2362 8.87439 10.4917C8.28547 10.7472 7.65252 10.875 6.97552 10.875ZM6.97852 9.95C7.20027 9.64342 7.39214 9.32408 7.55414 8.992C7.71622 8.65983 7.84727 8.30833 7.94727 7.9375H6.00977C6.10977 8.30833 6.24081 8.65983 6.40289 8.992C6.56489 9.32408 6.75677 9.64342 6.97852 9.95ZM5.75352 9.7375C5.59518 9.45 5.45664 9.15729 5.33789 8.85938C5.21914 8.56146 5.12189 8.25417 5.04614 7.9375H3.55977C3.80143 8.36667 4.10768 8.73438 4.47852 9.04063C4.84935 9.34688 5.27435 9.57917 5.75352 9.7375ZM8.20352 9.7375C8.68268 9.57917 9.10768 9.34688 9.47852 9.04063C9.84935 8.73438 10.1556 8.36667 10.3973 7.9375H8.91089C8.83514 8.25417 8.73789 8.56146 8.61914 8.85938C8.50039 9.15729 8.36185 9.45 8.20352 9.7375ZM3.17227 7H4.85352C4.82852 6.82917 4.80977 6.6625 4.79727 6.5C4.78477 6.3375 4.77852 6.17083 4.77852 6C4.77852 5.82917 4.78477 5.6625 4.79727 5.5C4.80977 5.3375 4.82852 5.17083 4.85352 5H3.17227C3.12643 5.17083 3.0931 5.33683 3.07227 5.498C3.05143 5.65908 3.04102 5.82642 3.04102 6C3.04102 6.17358 3.05143 6.34092 3.07227 6.502C3.0931 6.66317 3.12643 6.82917 3.17227 7ZM5.79727 7H8.15977C8.18893 6.82917 8.20977 6.66317 8.22227 6.502C8.23477 6.34092 8.24102 6.17358 8.24102 6C8.24102 5.82642 8.23477 5.65908 8.22227 5.498C8.20977 5.33683 8.18893 5.17083 8.15977 5H5.79727C5.7681 5.17083 5.74727 5.33683 5.73477 5.498C5.72227 5.65908 5.71602 5.82642 5.71602 6C5.71602 6.17358 5.72227 6.34092 5.73477 6.502C5.74727 6.66317 5.7681 6.82917 5.79727 7ZM9.10352 7H10.7848C10.8306 6.82917 10.8639 6.66317 10.8848 6.502C10.9056 6.34092 10.916 6.17358 10.916 6C10.916 5.82642 10.9056 5.65908 10.8848 5.498C10.8639 5.33683 10.8306 5.17083 10.7848 5H9.10352C9.12852 5.17083 9.14727 5.3375 9.15977 5.5C9.17227 5.6625 9.17852 5.82917 9.17852 6C9.17852 6.17083 9.17227 6.3375 9.15977 6.5C9.14727 6.6625 9.12852 6.82917 9.10352 7ZM8.91089 4.0625H10.3973C10.1556 3.63333 9.84935 3.26562 9.47852 2.95938C9.10768 2.65313 8.68268 2.42083 8.20352 2.2625C8.36185 2.55 8.50039 2.84271 8.61914 3.14062C8.73789 3.43854 8.83514 3.74583 8.91089 4.0625ZM6.00977 4.0625H7.94727C7.84727 3.69167 7.71622 3.34017 7.55414 3.008C7.39214 2.67592 7.20027 2.35658 6.97852 2.05C6.75677 2.35658 6.56489 2.67592 6.40289 3.008C6.24081 3.34017 6.10977 3.69167 6.00977 4.0625ZM3.55977 4.0625H5.04614C5.12189 3.74583 5.21914 3.43854 5.33789 3.14062C5.45664 2.84271 5.59518 2.55 5.75352 2.2625C5.27435 2.42083 4.84935 2.65313 4.47852 2.95938C4.10768 3.26562 3.80143 3.63333 3.55977 4.0625Z" fill="#A9A9A9"/>
</svg>
