<svg width="16" height="17" viewBox="0 0 16 17" fill="none" xmlns="http://www.w3.org/2000/svg">
<path d="M6.06022 11.8539H9.92689V10.6039H7.31022V9.23724H9.92689V7.98724H7.31022V6.62057H9.92689V5.37057H6.06022V11.8539ZM3.39355 14.4539C3.04978 14.4539 2.7555 14.3315 2.51072 14.0867C2.26594 13.842 2.14355 13.5477 2.14355 13.2039V4.00391C2.14355 3.66013 2.26594 3.36585 2.51072 3.12107C2.7555 2.8763 3.04978 2.75391 3.39355 2.75391H12.5936C12.9373 2.75391 13.2316 2.8763 13.4764 3.12107C13.7212 3.36585 13.8436 3.66013 13.8436 4.00391V13.2039C13.8436 13.5477 13.7212 13.842 13.4764 14.0867C13.2316 14.3315 12.9373 14.4539 12.5936 14.4539H3.39355Z" fill="#A9A9A9"/>
</svg>
