<svg width="112" height="40" viewBox="0 0 112 40" fill="none" xmlns="http://www.w3.org/2000/svg">
<g clip-path="url(#clip0_112_6488)">
<path d="M0.025443 20.8179C0.0327124 20.9681 0.0399818 21.1164 0.050886 21.2648C0.0581554 21.3527 0.0672422 21.4406 0.0745116 21.5286C0.0872331 21.6623 0.0981372 21.7941 0.112676 21.926C0.12358 22.0194 0.136302 22.1128 0.149023 22.2044C0.165379 22.329 0.181736 22.4553 0.199909 22.5799C0.214448 22.6751 0.230804 22.7704 0.24716 22.8656C0.267151 22.9865 0.287142 23.1074 0.310768 23.2264C0.328941 23.3235 0.35075 23.4187 0.370741 23.514C0.396184 23.6312 0.419809 23.7484 0.447069 23.8638C0.468878 23.9591 0.492503 24.0561 0.517946 24.1514C0.547024 24.2649 0.576102 24.3803 0.606997 24.4939C0.63244 24.5891 0.6597 24.6844 0.688778 24.7796C0.72149 24.8913 0.754203 25.0031 0.788732 25.113C0.81781 25.2082 0.848705 25.3016 0.8796 25.395C0.915947 25.5049 0.952294 25.613 0.990459 25.7229C1.02317 25.8163 1.0577 25.9097 1.09223 26.0013C1.13221 26.1093 1.17401 26.2156 1.21581 26.3218C1.25216 26.4134 1.28851 26.505 1.32667 26.5947C1.37029 26.7009 1.41572 26.8053 1.46115 26.9097C1.50114 26.9995 1.54112 27.0892 1.5811 27.1772C1.62835 27.2816 1.67742 27.3841 1.72831 27.4867C1.7701 27.5746 1.81372 27.6625 1.85734 27.7486C1.91004 27.8512 1.96274 27.9519 2.01726 28.0545C2.0627 28.1387 2.10632 28.2248 2.15357 28.3091C2.2099 28.4098 2.26806 28.5106 2.3244 28.6095C2.37165 28.6919 2.4189 28.7743 2.46797 28.8567C2.52794 28.9575 2.58973 29.0564 2.65334 29.1553C2.70241 29.234 2.75148 29.3128 2.80236 29.3915C2.81508 29.4099 2.82599 29.43 2.83871 29.4483C2.93321 29.5912 3.02771 29.7322 3.12585 29.8733L4.07815 27.549C2.78601 25.3053 2.04634 22.6989 2.04634 19.9186C2.04634 11.5098 8.80872 4.69445 17.1522 4.69445C17.99 4.69445 18.8114 4.76405 19.6129 4.89592L21.9428 3.31343C21.7628 3.26031 21.5811 3.21086 21.3994 3.16324C21.3939 3.16324 21.3885 3.16141 21.383 3.15958C21.3394 3.14859 21.2958 3.13943 21.2522 3.12844C21.114 3.09364 20.9741 3.06067 20.8342 3.02954C20.7669 3.01488 20.6979 3.00206 20.6306 2.98741C20.5125 2.9636 20.3944 2.93979 20.2762 2.91781C20.2017 2.90316 20.1254 2.89217 20.0509 2.87751C19.9382 2.85737 19.8237 2.83905 19.7092 2.82257C19.6311 2.81158 19.5547 2.80059 19.4766 2.7896C19.3621 2.77494 19.2476 2.76029 19.1331 2.74564C19.055 2.73648 18.9768 2.72732 18.9005 2.72C18.7824 2.70718 18.6642 2.69802 18.5461 2.68886C18.4716 2.68337 18.3971 2.67604 18.3226 2.67054C18.1917 2.66139 18.0609 2.65589 17.93 2.64857C17.8664 2.6449 17.8028 2.64124 17.7392 2.63941C17.5448 2.63208 17.3485 2.62842 17.1522 2.62842C7.68014 2.63391 0 10.3742 0 19.9222C0 20.1475 0.00545207 20.3728 0.0127215 20.5981C0.0163562 20.6714 0.0218083 20.7446 0.025443 20.8197V20.8179Z" fill="white"/>
<path d="M34.2735 18.8672C34.2626 18.6932 34.2535 18.5211 34.2372 18.3489C34.2281 18.2445 34.2136 18.1419 34.2027 18.0375C34.1863 17.8837 34.1699 17.7298 34.15 17.576C34.1354 17.4661 34.1154 17.3562 34.0991 17.2463C34.0773 17.1016 34.0554 16.9569 34.03 16.814C34.01 16.7005 33.9864 16.5887 33.9628 16.477C33.9355 16.3396 33.9082 16.2004 33.8773 16.0631C33.8519 15.9495 33.8228 15.8378 33.7956 15.7242C33.7629 15.5905 33.7301 15.4568 33.6938 15.3249C33.6629 15.2114 33.6284 15.0997 33.5957 14.9879C33.5575 14.8579 33.5193 14.7278 33.4775 14.5996C33.4412 14.4879 33.403 14.3762 33.3649 14.2645C33.3212 14.1381 33.2776 14.0117 33.2322 13.8872C33.1904 13.7754 33.1486 13.6674 33.105 13.5575C33.0559 13.4347 33.0087 13.312 32.9578 13.1911C32.9123 13.0813 32.8633 12.9732 32.816 12.867C32.7633 12.7479 32.7088 12.6289 32.6543 12.5098C32.6034 12.4036 32.5525 12.2973 32.4998 12.1911C32.4416 12.0739 32.3835 11.9585 32.3217 11.8431C32.2672 11.7387 32.2108 11.6361 32.1545 11.5317C32.0909 11.4182 32.0273 11.3046 31.9637 11.1929C31.9037 11.0922 31.8437 10.9896 31.7838 10.8907C31.7165 10.7808 31.6474 10.6709 31.5784 10.561C31.5148 10.4621 31.4512 10.365 31.3858 10.2679C31.3131 10.1599 31.2404 10.0536 31.1659 9.94741C31.0986 9.85217 31.0314 9.75876 30.9641 9.66535C30.8878 9.56095 30.8078 9.45655 30.7297 9.35214C30.6588 9.26057 30.5898 9.16899 30.5171 9.07924C30.4862 9.04077 30.4571 9.00231 30.4262 8.96385C30.3281 8.84296 30.2281 8.72391 30.1263 8.60669C30.0518 8.75688 29.9755 8.9089 29.8955 9.05909C29.8773 9.09572 29.8574 9.13052 29.8374 9.16715C29.7792 9.27888 29.7192 9.38878 29.6574 9.5005C29.6302 9.54812 29.6029 9.59575 29.5775 9.6452C29.5193 9.7496 29.4575 9.854 29.3957 9.9584C29.3685 10.0042 29.343 10.0481 29.3158 10.0939C29.2285 10.2405 29.1377 10.387 29.045 10.5317C31.0604 13.1179 32.2617 16.3799 32.2617 19.9241C32.2617 28.3329 25.4993 35.1482 17.1559 35.1482C15.6893 35.1482 14.2717 34.9376 12.9305 34.5456L10.8042 35.9889C10.9659 36.0548 11.1277 36.1171 11.2913 36.1757C11.3367 36.1922 11.3821 36.2069 11.4276 36.2233C11.533 36.26 11.6384 36.2966 11.7438 36.3314C11.8819 36.3772 12.02 36.423 12.1581 36.4651C12.2654 36.4981 12.3744 36.5292 12.4816 36.5603C12.6216 36.6006 12.7633 36.6391 12.9051 36.6757C13.0141 36.7032 13.1231 36.7307 13.234 36.7563C13.3776 36.7911 13.523 36.8223 13.6684 36.8516C13.7774 36.8735 13.8864 36.8974 13.9973 36.9175C14.1463 36.945 14.2972 36.9706 14.448 36.9944C14.5552 37.0109 14.6643 37.0292 14.7715 37.0457C14.9296 37.0677 15.0877 37.086 15.2476 37.1025C15.3512 37.1135 15.453 37.1281 15.5584 37.1373C15.7347 37.1538 15.9128 37.1648 16.0891 37.1758C16.1763 37.1813 16.2635 37.1886 16.3526 37.1941C16.6197 37.2069 16.8869 37.2142 17.1577 37.2142C26.6315 37.2142 34.3117 29.4739 34.3117 19.9259C34.3117 19.6603 34.3062 19.3966 34.2935 19.1346C34.2899 19.0467 34.2808 18.9588 34.2753 18.8709L34.2735 18.8672Z" fill="white"/>
<path d="M16.6799 9.1615L12.0984 21.0723C11.9475 21.4643 12.3873 21.8196 12.7344 21.5851L20.56 16.2735C20.56 16.2735 20.5691 16.2681 20.5727 16.2644C20.729 16.1472 23.9584 13.7313 25.3887 12.2679C28.6054 8.97285 29.8339 4.92504 30.3046 2.30954C30.321 2.22345 30.3355 2.13737 30.3483 2.05495C30.4191 1.63735 30.4682 1.26004 30.5046 0.935849C30.5245 0.749027 30.5409 0.578689 30.5536 0.428499C30.5809 0.0859929 30.2138 -0.115482 29.9303 0.076835L16.838 8.96369C16.7653 9.01314 16.7108 9.08274 16.6781 9.16516L16.6799 9.1615ZM27.8021 4.00925C27.7458 4.2034 27.6822 4.40121 27.6168 4.60085C27.6004 4.64847 27.5859 4.69793 27.5677 4.74555C27.5477 4.80599 27.5259 4.86643 27.5059 4.92504C27.4805 4.99831 27.4532 5.07157 27.4278 5.14483C27.406 5.20527 27.3823 5.26572 27.3605 5.32616C27.3333 5.40125 27.3042 5.47452 27.2733 5.54961C27.2497 5.61005 27.226 5.67233 27.2006 5.73277C27.1697 5.8097 27.137 5.88846 27.1043 5.96538C27.0788 6.02399 27.0552 6.0826 27.0298 6.14305C26.9934 6.2273 26.9553 6.31155 26.9171 6.3958C26.8935 6.44892 26.8698 6.50204 26.8444 6.55515C26.7935 6.66505 26.739 6.77678 26.6845 6.8885C26.6699 6.91598 26.659 6.94345 26.6445 6.97092C26.5754 7.10829 26.5045 7.24566 26.43 7.38303C26.4046 7.43065 26.3773 7.47827 26.3519 7.52406C26.301 7.61564 26.2519 7.70722 26.1992 7.7988C26.1665 7.85375 26.1338 7.91053 26.1011 7.96547C26.052 8.0479 26.003 8.13215 25.9521 8.21457C25.9157 8.27318 25.8794 8.33179 25.8412 8.3904C25.7903 8.47099 25.7394 8.55158 25.6867 8.63034C25.6468 8.68895 25.6068 8.74939 25.5668 8.808C25.5123 8.88676 25.4578 8.96552 25.4032 9.04428C25.3614 9.10289 25.3196 9.1615 25.276 9.22194C25.2179 9.3007 25.1597 9.37946 25.0997 9.45822C25.0561 9.515 25.0125 9.57177 24.9689 9.62855C24.9053 9.70914 24.8399 9.78973 24.7744 9.87032C24.7308 9.92344 24.6872 9.97655 24.6436 10.0297C24.5691 10.1176 24.4927 10.2055 24.4146 10.2916C24.3764 10.3355 24.3383 10.3795 24.2983 10.4235C24.1802 10.5535 24.0584 10.6835 23.9348 10.8118C22.6863 12.0902 19.7676 14.2918 19.3896 14.5757L15.8803 16.9586L18.41 10.3795L27.8058 4.00192L27.8021 4.00925Z" fill="white"/>
<path d="M17.3847 29.3421C18.0462 29.5545 18.7495 29.6681 19.4819 29.6681C23.3002 29.6681 26.3951 26.5489 26.3951 22.7007C26.3951 19.8471 24.6632 17.4624 22.2261 16.3854C22.1171 16.3579 21.9971 16.3726 21.8863 16.4477L6.31697 27.0141C6.24791 27.0617 6.19339 27.1277 6.16068 27.2064L1.15932 39.4048C0.997571 39.7986 1.44101 40.1631 1.79176 39.925L17.3465 29.3677L17.3847 29.3421ZM16.2088 27.6515L5.1048 35.1885L7.86718 28.4519L22.2061 18.7189C23.511 19.6017 24.347 21.0505 24.347 22.7007C24.347 25.4078 22.1698 27.6039 19.4819 27.6039C18.9639 27.6039 18.4696 27.5233 18.0062 27.3749L17.0703 27.0746L16.2088 27.6515Z" fill="white"/>
<path d="M112 13.1069H108.531L103.936 17.8727H100.76L102.019 13.1069H98.8788L95.3804 26.2907L98.5117 26.32L99.8765 21.1824H103.113L105.323 26.2998L109.16 26.32L106.205 19.4241L112 13.1069Z" fill="white"/>
<path d="M92.0002 13.1069L89.8575 21.1622L84.0147 13.1069H80.5272L77.0288 26.2907L80.5072 26.32L82.6681 18.1749L88.5018 26.2907L91.9802 26.32L95.4877 13.1069H92.0002Z" fill="white"/>
<path d="M54.4406 13.5355C53.8591 13.2425 53.1067 13.0959 52.1835 13.0959H43.104L39.5874 26.309H48.2108C49.6646 26.309 50.9332 25.9738 52.0181 25.3035C53.1031 24.6331 53.8246 23.6734 54.1789 22.4224C54.3988 21.5377 54.357 20.8509 54.0536 20.3618C53.7555 19.8673 53.2884 19.5871 52.6487 19.5212C53.1467 19.3783 53.5883 19.2079 53.9754 19.0138C54.3625 18.8123 54.706 18.4991 55.0022 18.076C55.2984 17.6456 55.5601 17.0174 55.7873 16.1913C55.9291 15.651 55.8836 15.1455 55.651 14.6784C55.4257 14.2096 55.0204 13.8286 54.4406 13.5355ZM51.1858 21.8564C51.1022 22.1293 50.9404 22.3619 50.7005 22.5488C50.4679 22.7374 50.2189 22.8327 49.9536 22.8327H43.7528L44.2671 20.8802H50.4788C50.7442 20.8802 50.9441 20.9754 51.0804 21.1641C51.2167 21.3454 51.2512 21.578 51.1876 21.8583L51.1858 21.8564ZM52.4543 17.0705C52.3634 17.3764 52.1889 17.6328 51.9309 17.8416C51.6728 18.0431 51.3984 18.1438 51.1076 18.1438H44.994L45.5665 15.9953H51.6801C51.9709 15.9953 52.1908 16.0997 52.338 16.3085C52.487 16.51 52.5252 16.7646 52.4543 17.0705Z" fill="white"/>
<path d="M62.9206 13.1069H59.5004L56.002 26.2907L57.9429 26.3072L57.9393 26.32H67.9692L68.7543 23.3803H60.1928L62.9206 13.1069Z" fill="white"/>
<path d="M70.0137 26.2907L73.4248 26.32L76.9414 13.1069H73.5103L70.0137 26.2907Z" fill="white"/>
</g>
<defs>
<clipPath id="clip0_112_6488">
<rect width="112" height="40" fill="white"/>
</clipPath>
</defs>
</svg>
