<svg width="12" height="12" viewBox="0 0 12 12" fill="none" xmlns="http://www.w3.org/2000/svg">
<path d="M3.55 10.8717C3.28533 10.8717 3.05875 10.7774 2.87025 10.5889C2.68175 10.4004 2.5875 10.1738 2.5875 9.90918C2.5875 9.64451 2.68175 9.41793 2.87025 9.22943C3.05875 9.04093 3.28533 8.94668 3.55 8.94668C3.81467 8.94668 4.04125 9.04093 4.22975 9.22943C4.41825 9.41793 4.5125 9.64451 4.5125 9.90918C4.5125 10.1738 4.41825 10.4004 4.22975 10.5889C4.04125 10.7774 3.81467 10.8717 3.55 10.8717ZM8.4375 10.8717C8.17283 10.8717 7.94625 10.7774 7.75775 10.5889C7.56925 10.4004 7.475 10.1738 7.475 9.90918C7.475 9.64451 7.56925 9.41793 7.75775 9.22943C7.94625 9.04093 8.17283 8.94668 8.4375 8.94668C8.70217 8.94668 8.92875 9.04093 9.11725 9.22943C9.30575 9.41793 9.4 9.64451 9.4 9.90918C9.4 10.1738 9.30575 10.4004 9.11725 10.5889C8.92875 10.7774 8.70217 10.8717 8.4375 10.8717ZM2.6515 2.07168H9.8375C10.0292 2.07168 10.175 2.15747 10.275 2.32906C10.375 2.50064 10.3792 2.67318 10.2875 2.84668L8.575 5.93418C8.49167 6.09668 8.37396 6.22272 8.22188 6.3123C8.06979 6.40189 7.90417 6.44668 7.725 6.44668H4.075L3.5125 7.47168H9.4V8.40918H3.55238C3.18688 8.40918 2.91075 8.25189 2.724 7.93731C2.53717 7.62272 2.52917 7.30918 2.7 6.99668L3.375 5.78693L1.6015 2.03418H0.625V1.09668H2.1875L2.6515 2.07168Z" fill="#A9A9A9"/>
</svg>
