<svg width="22" height="22" viewBox="0 0 22 22" fill="none" xmlns="http://www.w3.org/2000/svg">
<path d="M17.3617 4.71073C16.6273 4.59356 16.1702 5.11173 15.6702 5.48303C14.992 5.39557 14.3764 4.80809 13.6619 5.2817C13.6685 6.41704 14.1635 7.17614 15.1784 7.52268C15.2824 8.12006 15.1487 8.61182 14.8616 9.06068C14.5415 9.56399 14.0992 9.6399 13.619 9.2719C13.3913 9.09698 13.1998 8.8742 12.9985 8.67122C12.685 8.35603 12.378 8.03425 12.0826 7.70421C11.1123 6.61837 9.90767 5.97314 8.48684 5.76686C7.56107 5.6332 6.64026 5.69425 5.75244 6.02099C4.74417 6.39229 4.37782 6.91211 4.40092 7.98969C4.43888 9.77027 4.97355 11.3578 6.26401 12.64C6.35808 12.734 6.43728 12.843 6.59075 13.0245C6.23761 13.6086 5.88281 14.1961 5.49336 14.8397C6.60395 15.4602 7.3383 14.739 8.137 14.2407C8.87794 14.4965 9.61888 14.7522 10.3648 15.0097C10.5034 15.2374 10.6354 15.4734 10.7856 15.6995C11.274 16.4289 11.9704 16.8926 12.7757 17.1929C13.0183 17.2837 13.284 17.3761 13.5266 17.2424C13.6866 17.1549 13.7642 16.9668 13.7411 16.787C13.6239 15.8777 13.1041 15.0163 13.1569 14.0014C14.081 13.6466 14.7609 12.9997 15.2774 12.173C15.7445 11.4254 16.0662 10.6168 16.2313 9.75541C16.3732 9.01117 16.4573 8.25538 16.5596 7.54084C17.6257 6.61507 17.8336 5.86092 17.36 4.70908L17.3617 4.71073ZM10.0331 13.5261C8.1865 13.2176 6.19965 11.3908 6.14354 9.89898C6.74422 9.95179 8.07593 11.8182 10.279 12.3875C10.1486 12.7835 10.1024 13.107 10.0331 13.5245V13.5261ZM10.4242 10.7538C9.69809 10.7538 9.69974 9.6267 10.4242 9.6267C11.1486 9.6267 11.1486 10.7538 10.4242 10.7538Z" fill="#00FFA3"/>
</svg>
