<svg width="16" height="17" viewBox="0 0 16 17" fill="none" xmlns="http://www.w3.org/2000/svg">
<g clip-path="url(#clip0_112_6432)">
<path d="M0.901367 13.7208V11.9541C0.901367 11.5874 0.994423 11.2527 1.18053 10.9499C1.36665 10.6472 1.61803 10.4152 1.9347 10.2541C2.61248 9.92076 3.29859 9.66937 3.99304 9.49993C4.68748 9.33048 5.38748 9.24576 6.09304 9.24576C6.79859 9.24576 7.4972 9.33048 8.18887 9.49993C8.88054 9.66937 9.56526 9.92076 10.243 10.2541C10.5597 10.4152 10.8111 10.6472 10.9972 10.9499C11.1833 11.2527 11.2764 11.5874 11.2764 11.9541V13.7208H0.901367ZM12.5847 13.7208V11.8374C12.5847 11.3541 12.45 10.8972 12.1805 10.4666C11.9111 10.036 11.5319 9.66798 11.043 9.36243C11.5819 9.42909 12.0889 9.53882 12.5639 9.69159C13.0389 9.84437 13.4847 10.0346 13.9014 10.2624C14.2847 10.468 14.5778 10.7041 14.7805 10.9708C14.9833 11.2374 15.0847 11.5263 15.0847 11.8374V13.7208H12.5847ZM6.09304 8.62076C5.38192 8.62076 4.77637 8.37076 4.27637 7.87076C3.77637 7.37076 3.52637 6.76521 3.52637 6.05409C3.52637 5.34298 3.77637 4.73743 4.27637 4.23743C4.77637 3.73743 5.38192 3.48743 6.09304 3.48743C6.80415 3.48743 7.4097 3.73743 7.9097 4.23743C8.4097 4.73743 8.6597 5.34298 8.6597 6.05409C8.6597 6.76521 8.4097 7.37076 7.9097 7.87076C7.4097 8.37076 6.80415 8.62076 6.09304 8.62076ZM12.4597 6.04576C12.4597 6.75132 12.2097 7.35548 11.7097 7.85826C11.2097 8.36104 10.6041 8.61243 9.89304 8.61243C9.78748 8.61243 9.6472 8.59993 9.4722 8.57493C9.2972 8.54993 9.15415 8.52076 9.04304 8.48743C9.33748 8.14854 9.56387 7.77076 9.7222 7.35409C9.88054 6.93743 9.9597 6.50132 9.9597 6.04576C9.9597 5.59576 9.88054 5.16104 9.7222 4.74159C9.56387 4.32215 9.33748 3.94298 9.04304 3.60409C9.18193 3.55409 9.32359 3.52215 9.46804 3.50826C9.61248 3.49437 9.75415 3.48743 9.89304 3.48743C10.6041 3.48743 11.2097 3.73743 11.7097 4.23743C12.2097 4.73743 12.4597 5.3402 12.4597 6.04576Z" fill="#A9A9A9"/>
</g>
<defs>
<clipPath id="clip0_112_6432">
<rect width="16" height="16" fill="white" transform="translate(-0.00683594 0.604126)"/>
</clipPath>
</defs>
</svg>
