<svg width="16" height="17" viewBox="0 0 16 17" fill="none" xmlns="http://www.w3.org/2000/svg">
<path d="M12.9833 14.4623L8.85027 10.329C8.52227 10.5956 8.14438 10.8026 7.7166 10.9498C7.28882 11.097 6.83694 11.1706 6.36094 11.1706C5.18171 11.1706 4.18366 10.7626 3.36677 9.94647C2.54999 9.13025 2.1416 8.13303 2.1416 6.9548C2.1416 5.77647 2.54966 4.77897 3.36577 3.9623C4.18199 3.14564 5.17921 2.7373 6.35744 2.7373C7.53577 2.7373 8.53327 3.14569 9.34994 3.96247C10.1666 4.77936 10.5749 5.77742 10.5749 6.95664C10.5749 7.43264 10.4999 7.88592 10.3499 8.31647C10.1999 8.74703 9.99438 9.12619 9.73327 9.45397L13.8666 13.579L12.9833 14.4623ZM6.35827 9.92064C7.18605 9.92064 7.88743 9.63314 8.46244 9.05814C9.03744 8.48314 9.32494 7.78175 9.32494 6.95397C9.32494 6.12619 9.03744 5.4248 8.46244 4.8498C7.88743 4.2748 7.18605 3.9873 6.35827 3.9873C5.53049 3.9873 4.8291 4.2748 4.2541 4.8498C3.6791 5.4248 3.3916 6.12619 3.3916 6.95397C3.3916 7.78175 3.6791 8.48314 4.2541 9.05814C4.8291 9.63314 5.53049 9.92064 6.35827 9.92064Z" fill="#716F7A"/>
</svg>
