<svg width="12" height="12" viewBox="0 0 12 12" fill="none" xmlns="http://www.w3.org/2000/svg">
<path d="M4.69395 10.875L4.49395 9.31255C4.38145 9.27088 4.27103 9.21984 4.1627 9.15942C4.05436 9.09901 3.95436 9.03547 3.8627 8.9688L2.41895 9.5688L1.10645 7.2938L2.36895 6.33755C2.36061 6.28338 2.35645 6.2313 2.35645 6.1813V6.00005C2.35645 5.95005 2.35749 5.89588 2.35957 5.83755C2.36165 5.77922 2.36686 5.71255 2.3752 5.63755L1.10645 4.6938L2.41895 2.4313L3.88145 3.0438C3.96478 2.97713 4.05749 2.91463 4.15957 2.8563C4.26165 2.79797 4.37311 2.7438 4.49395 2.6938L4.69395 1.11255H7.30645L7.50645 2.67505C7.62311 2.72088 7.7304 2.77401 7.82832 2.83442C7.92624 2.89484 8.02103 2.96463 8.1127 3.0438L9.58145 2.4313L10.8939 4.6938L9.59395 5.66255C9.60228 5.72088 9.60645 5.77401 9.60645 5.82192V6.18442C9.60645 6.23651 9.6002 6.28963 9.5877 6.3438L10.8752 7.2938L9.5627 9.5688L8.1127 8.9563C8.03353 9.0188 7.94707 9.07713 7.85332 9.1313C7.75957 9.18547 7.64395 9.24588 7.50645 9.31255L7.30645 10.875H4.69395ZM5.99395 7.68755C6.46061 7.68755 6.85853 7.52297 7.1877 7.1938C7.51686 6.86463 7.68145 6.46672 7.68145 6.00005C7.68145 5.53338 7.51686 5.13547 7.1877 4.8063C6.85853 4.47713 6.46061 4.31255 5.99395 4.31255C5.52311 4.31255 5.12415 4.47713 4.79707 4.8063C4.46999 5.13547 4.30645 5.53338 4.30645 6.00005C4.30645 6.46672 4.46999 6.86463 4.79707 7.1938C5.12415 7.52297 5.52311 7.68755 5.99395 7.68755Z" fill="#E8EAED"/>
</svg>
