<svg width="16" height="16" viewBox="0 0 16 16" fill="none" xmlns="http://www.w3.org/2000/svg">
<g clip-path="url(#clip0_117_6987)">
<path d="M4.08301 15.0797C3.73923 15.0797 3.44495 14.9573 3.20017 14.7125C2.9554 14.4677 2.83301 14.1735 2.83301 13.8297V6.62969C2.83301 6.28591 2.9554 5.99163 3.20017 5.74685C3.44495 5.50208 3.73923 5.37969 4.08301 5.37969H6.12467V6.62969H4.08301V13.8297H11.9163V6.62969H9.87467V5.37969H11.9163C12.2601 5.37969 12.5544 5.50208 12.7992 5.74685C13.044 5.99163 13.1663 6.28591 13.1663 6.62969V13.8297C13.1663 14.1735 13.044 14.4677 12.7992 14.7125C12.5544 14.9573 12.2601 15.0797 11.9163 15.0797H4.08301ZM7.37467 10.538V3.32135L6.29134 4.40469L5.41634 3.51302L7.99967 0.929688L10.583 3.51302L9.70801 4.40469L8.62467 3.32135V10.538H7.37467Z" fill="#A9A9A9"/>
</g>
<defs>
<clipPath id="clip0_117_6987">
<rect width="16" height="16" fill="white" transform="translate(0 -0.00341797)"/>
</clipPath>
</defs>
</svg>
