<svg width="10" height="8" viewBox="0 0 10 8" fill="none" xmlns="http://www.w3.org/2000/svg">
<g clip-path="url(#clip0_105_5925)">
<g clip-path="url(#clip1_105_5925)">
<path d="M1.62387 5.95199C1.68422 5.89165 1.76719 5.85645 1.8552 5.85645L9.83609 5.85645C9.98193 5.85645 10.0548 6.03246 9.95176 6.13555L8.37519 7.71211C8.31485 7.77246 8.23187 7.80766 8.14386 7.80766L0.16297 7.80766C0.0171315 7.80766 -0.0557878 7.63165 0.047305 7.52856L1.62387 5.95199Z" fill="url(#paint0_linear_105_5925)"/>
<path d="M1.62387 0.0657642C1.68673 0.00541724 1.76971 -0.0297852 1.8552 -0.0297852L9.83609 -0.0297852C9.98193 -0.0297852 10.0548 0.146227 9.95176 0.24932L8.37519 1.82588C8.31485 1.88623 8.23187 1.92143 8.14386 1.92143L0.16297 1.92143C0.0171315 1.92143 -0.0557878 1.74542 0.047305 1.64233L1.62387 0.0657642Z" fill="url(#paint1_linear_105_5925)"/>
<path d="M8.37519 2.99008C8.31485 2.92973 8.23187 2.89453 8.14386 2.89453L0.16297 2.89453C0.0171315 2.89453 -0.0557878 3.07054 0.047305 3.17364L1.62387 4.7502C1.68422 4.81055 1.76719 4.84575 1.8552 4.84575L9.83609 4.84575C9.98193 4.84575 10.0548 4.66974 9.95176 4.56665L8.37519 2.99008Z" fill="url(#paint2_linear_105_5925)"/>
</g>
</g>
<defs>
<linearGradient id="paint0_linear_105_5925" x1="9.07368" y1="-0.971698" x2="3.55028" y2="9.60786" gradientUnits="userSpaceOnUse">
<stop stop-color="#00FFA3"/>
<stop offset="1" stop-color="#DC1FFF"/>
</linearGradient>
<linearGradient id="paint1_linear_105_5925" x1="6.65855" y1="-2.23249" x2="1.13514" y2="8.34707" gradientUnits="userSpaceOnUse">
<stop stop-color="#00FFA3"/>
<stop offset="1" stop-color="#DC1FFF"/>
</linearGradient>
<linearGradient id="paint2_linear_105_5925" x1="7.85843" y1="-1.60605" x2="2.33502" y2="8.97351" gradientUnits="userSpaceOnUse">
<stop stop-color="#00FFA3"/>
<stop offset="1" stop-color="#DC1FFF"/>
</linearGradient>
<clipPath id="clip0_105_5925">
<rect width="10" height="7.77778" fill="white"/>
</clipPath>
<clipPath id="clip1_105_5925">
<rect width="10" height="7.83756" fill="white" transform="translate(0 -0.0297852)"/>
</clipPath>
</defs>
</svg>
