<svg width="12" height="12" viewBox="0 0 12 12" fill="none" xmlns="http://www.w3.org/2000/svg">
<path d="M2.59375 9.87305V8.93555H9.40625V9.87305H2.59375ZM2.5875 8.16055L1.96875 4.24805C1.94792 4.25221 1.92558 4.25534 1.90175 4.25742C1.878 4.25951 1.85658 4.26055 1.8375 4.26055C1.63958 4.26055 1.47137 4.19067 1.33287 4.05092C1.19429 3.91117 1.125 3.74146 1.125 3.5418C1.125 3.34388 1.19429 3.17563 1.33287 3.03705C1.47137 2.89855 1.63958 2.8293 1.8375 2.8293C2.03542 2.8293 2.20367 2.89855 2.34225 3.03705C2.48075 3.17563 2.55 3.34388 2.55 3.5418C2.55 3.60013 2.54375 3.6543 2.53125 3.7043C2.51875 3.7543 2.50208 3.80221 2.48125 3.84805L4.04375 4.54805L5.59375 2.42255C5.50208 2.35621 5.42708 2.27151 5.36875 2.16842C5.31042 2.06542 5.28125 1.95446 5.28125 1.83555C5.28125 1.63763 5.35112 1.46938 5.49087 1.3308C5.63062 1.1923 5.80033 1.12305 6 1.12305C6.19792 1.12305 6.36617 1.1923 6.50475 1.3308C6.64325 1.46938 6.7125 1.63763 6.7125 1.83555C6.7125 1.95446 6.68333 2.06542 6.625 2.16842C6.56667 2.27151 6.49167 2.35621 6.4 2.42255L7.95 4.54805L9.5125 3.84805C9.49167 3.80221 9.475 3.7543 9.4625 3.7043C9.45 3.6543 9.44375 3.60013 9.44375 3.5418C9.44375 3.34388 9.51304 3.17563 9.65163 3.03705C9.79012 2.89855 9.95833 2.8293 10.1562 2.8293C10.3559 2.8293 10.5256 2.8988 10.6654 3.0378C10.8051 3.17671 10.875 3.34546 10.875 3.54405C10.875 3.74255 10.8051 3.91159 10.6654 4.05117C10.5256 4.19076 10.3559 4.26055 10.1562 4.26055C10.1372 4.26055 10.1158 4.25951 10.092 4.25742C10.0682 4.25534 10.0458 4.25221 10.025 4.24805L9.40425 8.16055H2.5875Z" fill="#A9A9A9"/>
</svg>
