<svg width="12" height="12" viewBox="0 0 12 12" fill="none" xmlns="http://www.w3.org/2000/svg">
<g clip-path="url(#clip0_112_6785)">
<path d="M5.9998 11.3591L2.4873 8.72158C2.36647 8.63408 2.27376 8.52471 2.20918 8.39346C2.1446 8.26221 2.1123 8.12158 2.1123 7.97158V2.05908C2.1123 1.80075 2.20397 1.57992 2.3873 1.39658C2.57064 1.21325 2.79147 1.12158 3.0498 1.12158H8.9498C9.20814 1.12158 9.42897 1.21325 9.6123 1.39658C9.79564 1.57992 9.8873 1.80075 9.8873 2.05908V7.97158C9.8873 8.12158 9.85501 8.26221 9.79043 8.39346C9.72585 8.52471 9.63314 8.63408 9.5123 8.72158L5.9998 11.3591ZM5.4873 7.44658L8.2373 4.69658L7.5748 4.02158L5.4873 6.10908L4.4373 5.05908L3.7623 5.72158L5.4873 7.44658Z" fill="#E8EAED"/>
</g>
<defs>
<clipPath id="clip0_112_6785">
<rect width="12" height="12" fill="white" transform="translate(0 -0.00341797)"/>
</clipPath>
</defs>
</svg>
