<svg width="16" height="17" viewBox="0 0 16 17" fill="none" xmlns="http://www.w3.org/2000/svg">
<path d="M3.41016 14.4542C3.06571 14.4542 2.77127 14.3319 2.52682 14.0875C2.28238 13.843 2.16016 13.5486 2.16016 13.2042V4.00415C2.16016 3.65971 2.28238 3.36526 2.52682 3.12082C2.77127 2.87637 3.06571 2.75415 3.41016 2.75415H12.5935C12.9379 2.75415 13.2324 2.87637 13.4768 3.12082C13.7213 3.36526 13.8435 3.65971 13.8435 4.00415V4.13748H8.69349C7.94905 4.13748 7.34071 4.37359 6.86849 4.84582C6.39627 5.31804 6.16016 5.92637 6.16016 6.67082V10.5375C6.16016 11.2819 6.39627 11.8903 6.86849 12.3625C7.34071 12.8347 7.94905 13.0708 8.69349 13.0708H13.8435V13.2042C13.8435 13.5486 13.7213 13.843 13.4768 14.0875C13.2324 14.3319 12.9379 14.4542 12.5935 14.4542H3.41016ZM8.69349 11.8208C8.33238 11.8208 8.02821 11.6972 7.78099 11.45C7.53377 11.2028 7.41016 10.8986 7.41016 10.5375V6.67082C7.41016 6.30971 7.53377 6.00554 7.78099 5.75832C8.02821 5.5111 8.33238 5.38748 8.69349 5.38748H13.2102C13.5713 5.38748 13.8754 5.5111 14.1227 5.75832C14.3699 6.00554 14.4935 6.30971 14.4935 6.67082V10.5375C14.4935 10.8986 14.3699 11.2028 14.1227 11.45C13.8754 11.6972 13.5713 11.8208 13.2102 11.8208H8.69349ZM10.6268 9.58748C10.9046 9.58748 11.1379 9.49304 11.3268 9.30415C11.5157 9.11526 11.6102 8.88193 11.6102 8.60415C11.6102 8.32637 11.5157 8.09304 11.3268 7.90415C11.1379 7.71526 10.9046 7.62082 10.6268 7.62082C10.349 7.62082 10.1157 7.71526 9.92682 7.90415C9.73794 8.09304 9.64349 8.32637 9.64349 8.60415C9.64349 8.88193 9.73794 9.11526 9.92682 9.30415C10.1157 9.49304 10.349 9.58748 10.6268 9.58748Z" fill="#A9A9A9"/>
</svg>
